<svg width="273" height="314" viewBox="0 0 273 314" fill="none" xmlns="http://www.w3.org/2000/svg">
<g id="cart-main">
<g id="cart-cart">
<g id="cart-items-white">
<path id="Vector" d="M200.194 244.162C206.795 244.162 212.146 238.353 212.146 231.187C212.146 224.021 206.795 218.212 200.194 218.212C193.594 218.212 188.243 224.021 188.243 231.187C188.243 238.353 193.594 244.162 200.194 244.162Z" fill="white"/>
<path id="Vector_2" d="M145.508 202.722H137.187C136.894 202.722 136.614 202.848 136.407 203.073C136.2 203.298 136.084 203.602 136.084 203.92V207.885C136.084 208.202 136.2 208.507 136.407 208.732C136.614 208.956 136.894 209.082 137.187 209.082H138.566V215.023H144.129V209.082H145.508C145.8 209.082 146.081 208.956 146.288 208.732C146.495 208.507 146.611 208.202 146.611 207.885V203.92C146.611 203.602 146.495 203.298 146.288 203.073C146.081 202.848 145.8 202.722 145.508 202.722V202.722Z" fill="#E6E6E6"/>
<path id="Vector_3" opacity="0.2" d="M143.773 204.014C143.773 204.7 143.522 205.357 143.076 205.841C142.63 206.326 142.024 206.598 141.393 206.598C140.762 206.598 140.156 206.326 139.71 205.841C139.264 205.357 139.013 204.7 139.013 204.014" fill="white"/>
<path id="Vector_4" d="M150.695 249.727H133.394C133.138 249.727 132.885 249.787 132.652 249.903C132.42 250.019 132.213 250.189 132.046 250.4C131.879 250.611 131.757 250.859 131.686 251.126C131.616 251.393 131.6 251.674 131.639 251.949L134.253 270.397H149.266L152.441 252.011C152.489 251.732 152.48 251.446 152.415 251.172C152.349 250.897 152.229 250.642 152.062 250.424C151.895 250.206 151.687 250.03 151.45 249.91C151.214 249.79 150.956 249.727 150.695 249.727V249.727Z" fill="white"/>
<path id="Vector_5" d="M97.2662 252.563C103.867 252.563 109.218 246.754 109.218 239.588C109.218 232.422 103.867 226.613 97.2662 226.613C90.6654 226.613 85.3145 232.422 85.3145 239.588C85.3145 246.754 90.6654 252.563 97.2662 252.563Z" fill="white"/>
</g>
<g id="cart-items-colored">
<path id="Vector_6" d="M200.183 277.266L159.689 246.173C173.346 231.73 185.768 211.164 197.647 187.911L238.142 219.005C221.961 238.955 208.254 258.533 200.183 277.266Z" fill="#191125"/>
<path id="Vector_7" d="M153.842 239.009C148.746 230.914 146.141 221.276 146.4 211.475C146.404 211.249 146.337 211.028 146.208 210.85C146.08 210.672 145.899 210.547 145.695 210.497V208.784H136.908V210.474H136.786C136.668 210.474 136.551 210.499 136.441 210.549C136.332 210.598 136.233 210.67 136.149 210.761C136.066 210.852 135.999 210.96 135.954 211.079C135.909 211.198 135.886 211.325 135.886 211.454C135.886 211.478 135.887 211.501 135.888 211.525C136.581 222.002 134.243 231.397 128.875 239.711C128.566 240.189 128.408 240.763 128.425 241.346L129.386 273.614C129.409 274.334 129.688 275.016 130.163 275.519C130.638 276.021 131.274 276.305 131.937 276.31H151.814C152.485 276.304 153.127 276.014 153.604 275.502C154.081 274.989 154.354 274.295 154.367 273.567L154.737 242.237C154.748 241.087 154.436 239.961 153.842 239.009V239.009Z" fill="#191125"/>
<path id="Vector_8" d="M121.767 277.215H72.1675C75.6352 256.862 74.8374 232.285 72.1675 205.854H121.767C119.168 232.285 118.392 256.862 121.767 277.215Z" fill="#191125"/>
</g>
<g id="cart-handle">
<path id="Vector_9" d="M224.422 281.928H66.8457L33.4775 110.684H5V103H39.2146L72.5828 274.244H224.422V281.928Z" fill="#191125"/>
</g>
<g id="cart-wheels">
<path id="Vector_10" d="M89.9375 313.213C98.3142 313.213 105.105 305.841 105.105 296.747C105.105 287.653 98.3142 280.281 89.9375 280.281C81.5608 280.281 74.7701 287.653 74.7701 296.747C74.7701 305.841 81.5608 313.213 89.9375 313.213Z" fill="#191125"/>
<path id="Vector_11" d="M203.187 313.213C211.564 313.213 218.355 305.841 218.355 296.747C218.355 287.653 211.564 280.281 203.187 280.281C194.811 280.281 188.02 287.653 188.02 296.747C188.02 305.841 194.811 313.213 203.187 313.213Z" fill="#191125"/>
</g>
<g id="cart-frame">
<path id="Vector_12" d="M221.548 278.31H68.236L41.1855 133.187H246.934C247.984 133.187 249.021 133.434 249.975 133.911C250.928 134.388 251.775 135.083 252.458 135.95C253.14 136.816 253.641 137.832 253.927 138.929C254.213 140.025 254.277 141.176 254.115 142.302L228.728 271.644C228.466 273.505 227.597 275.202 226.279 276.425C224.961 277.649 223.283 278.318 221.548 278.31V278.31ZM69.9009 276.114H221.548C222.8 276.12 224.012 275.637 224.963 274.754C225.914 273.871 226.541 272.646 226.73 271.303L252.116 141.961C252.234 141.149 252.188 140.318 251.981 139.526C251.775 138.735 251.413 138.001 250.921 137.376C250.428 136.751 249.817 136.249 249.129 135.905C248.44 135.56 247.691 135.382 246.934 135.382H43.6404L69.9009 276.114Z" fill="#191125"/>
<path id="Vector_13" d="M98.0405 277.845L80.3254 134.463L82.3204 134.106L100.035 277.488L98.0405 277.845Z" fill="#191125"/>
<path id="Vector_14" d="M196.543 276.744L194.546 276.393L211.744 134.109L213.74 134.46L196.543 276.744Z" fill="#191125"/>
<path id="Vector_15" d="M149.612 134.285H147.589V277.666H149.612V134.285Z" fill="#191125"/>
<path id="Vector_16" d="M51.5159 172.705L51.511 174.9L247.269 175.415L247.274 173.22L51.5159 172.705Z" fill="#191125"/>
<path id="Vector_17" d="M233.46 240.524L61.4822 241.801L61.496 243.996L233.473 242.72L233.46 240.524Z" fill="#191125"/>
</g>
</g>
<path id="cart-text" d="M23.7 103.395C20.066 103.395 16.7743 102.5 13.825 100.709C10.9283 98.9183 8.63733 96.3377 6.952 92.967C5.26667 89.5437 4.424 85.5147 4.424 80.88C4.424 72.8747 6.13567 65.475 9.559 58.681C12.9823 51.8343 18.0383 46.357 24.727 42.249C31.4157 38.0883 39.4473 36.008 48.822 36.008C51.2447 36.008 53.8253 36.1923 56.564 36.561C59.3553 36.9297 61.8833 37.4827 64.148 38.22C65.6227 38.6413 66.36 39.6947 66.36 41.38C66.36 42.7493 65.8333 44.0397 64.78 45.251C63.7793 46.4623 62.5943 47.068 61.225 47.068C60.8037 47.068 60.4877 47.0417 60.277 46.989C57.5383 46.357 55.1947 45.9093 53.246 45.646C51.2973 45.33 49.2433 45.172 47.084 45.172C40.3953 45.172 34.7073 46.8047 30.02 50.07C25.3327 53.2827 21.8303 57.5487 19.513 62.868C17.1957 68.1873 16.037 73.928 16.037 80.09C16.037 84.5667 16.906 88.0427 18.644 90.518C20.4347 92.9407 22.752 94.152 25.596 94.152C28.8087 94.152 31.6263 92.8353 34.049 90.202C36.4717 87.5687 38.6837 83.3027 40.685 77.404C42.6863 71.5053 44.6613 63.5 46.61 53.388C46.926 51.9133 47.558 50.9127 48.506 50.386C49.454 49.8593 50.718 49.596 52.298 49.596C56.0373 49.596 57.907 50.8073 57.907 53.23C57.907 53.6513 57.828 54.178 57.67 54.81C56.3007 59.9187 55.0367 65.5803 53.878 71.795C52.772 77.957 52.219 82.6443 52.219 85.857C52.219 88.701 52.6403 90.7813 53.483 92.098C54.3257 93.362 55.616 93.994 57.354 93.994C59.0393 93.994 60.6457 93.441 62.173 92.335C63.7003 91.1763 65.6227 89.2277 67.94 86.489C68.572 85.7517 69.283 85.383 70.073 85.383C70.7577 85.383 71.2843 85.699 71.653 86.331C72.0743 86.963 72.285 87.832 72.285 88.938C72.285 90.992 71.7847 92.6247 70.784 93.836C68.2033 96.9433 65.6753 99.3133 63.2 100.946C60.7247 102.579 57.6963 103.395 54.115 103.395C50.4283 103.395 47.4527 102.342 45.188 100.235C42.9233 98.0757 41.5013 95.0473 40.922 91.15C37.0247 99.3133 31.284 103.395 23.7 103.395ZM80.9855 103.395C75.8242 103.395 71.7952 101.947 68.8985 99.05C66.0545 96.1007 64.6325 92.2297 64.6325 87.437C64.6325 83.171 65.4752 79.4317 67.1605 76.219C68.8458 73.0063 71.0315 70.531 73.7175 68.793C76.4035 67.055 79.2212 66.186 82.1705 66.186C85.0672 66.186 87.3055 67.055 88.8855 68.793C90.5182 70.4783 91.3345 72.664 91.3345 75.35C91.3345 77.562 90.8342 79.4317 89.8335 80.959C88.8855 82.4863 87.6215 83.25 86.0415 83.25C85.0408 83.25 84.2245 83.013 83.5925 82.539C83.0132 82.065 82.7235 81.4067 82.7235 80.564C82.7235 80.1953 82.7762 79.774 82.8815 79.3C82.9868 78.826 83.0658 78.4837 83.1185 78.273C83.3818 77.483 83.5135 76.7457 83.5135 76.061C83.5135 75.3763 83.3292 74.8497 82.9605 74.481C82.6445 74.1123 82.1705 73.928 81.5385 73.928C80.3272 73.928 79.1948 74.481 78.1415 75.587C77.0882 76.6403 76.2455 78.0887 75.6135 79.932C74.9815 81.7753 74.6655 83.803 74.6655 86.015C74.6655 92.1243 77.3252 95.179 82.6445 95.179C84.8038 95.179 87.1212 94.468 89.5965 93.046C92.1245 91.5713 94.5998 89.3857 97.0225 86.489C97.6545 85.7517 98.3655 85.383 99.1555 85.383C99.8402 85.383 100.367 85.699 100.735 86.331C101.157 86.963 101.367 87.832 101.367 88.938C101.367 90.9393 100.867 92.572 99.8665 93.836C97.3912 96.8907 94.4155 99.2607 90.9395 100.946C87.5162 102.579 84.1982 103.395 80.9855 103.395ZM103.039 103.395C100.669 103.395 98.7208 102.315 97.1935 100.156C95.7188 97.944 94.9815 95.2053 94.9815 91.94C94.9815 87.99 95.2448 84.3823 95.7715 81.117C96.2981 77.799 97.1671 74.2967 98.3785 70.61C98.9051 69.03 99.6425 67.8977 100.59 67.213C101.538 66.5283 103.039 66.186 105.093 66.186C106.252 66.186 107.042 66.3703 107.463 66.739C107.937 67.1077 108.174 67.6607 108.174 68.398C108.174 68.8193 107.885 70.2413 107.305 72.664C106.779 74.6127 106.357 76.377 106.041 77.957C104.988 83.487 104.461 87.1737 104.461 89.017C104.461 90.123 104.593 90.913 104.856 91.387C105.12 91.8083 105.541 92.019 106.12 92.019C106.91 92.019 107.885 91.229 109.043 89.649C110.255 88.069 111.519 85.6727 112.835 82.46C114.205 79.2473 115.521 75.2973 116.785 70.61C117.207 69.03 117.839 67.8977 118.681 67.213C119.577 66.5283 120.893 66.186 122.631 66.186C123.843 66.186 124.685 66.344 125.159 66.66C125.633 66.9233 125.87 67.45 125.87 68.24C125.87 69.5567 125.212 73.1643 123.895 79.063C122.421 85.8043 121.683 89.965 121.683 91.545C121.683 92.5457 121.894 93.3357 122.315 93.915C122.737 94.4417 123.29 94.705 123.974 94.705C125.028 94.705 126.265 94.073 127.687 92.809C129.162 91.4923 131.111 89.3857 133.533 86.489C134.165 85.7517 134.876 85.383 135.666 85.383C136.351 85.383 136.878 85.699 137.246 86.331C137.668 86.963 137.878 87.832 137.878 88.938C137.878 91.0447 137.378 92.6773 136.377 93.836C134.113 96.6273 131.664 98.9183 129.03 100.709C126.45 102.5 123.5 103.395 120.182 103.395C117.654 103.395 115.785 102.421 114.573 100.472C113.415 98.5233 112.835 95.7847 112.835 92.256C111.94 95.8373 110.597 98.6023 108.806 100.551C107.016 102.447 105.093 103.395 103.039 103.395ZM166.707 85.383C167.391 85.383 167.918 85.699 168.287 86.331C168.708 86.963 168.919 87.832 168.919 88.938C168.919 91.0447 168.418 92.6773 167.418 93.836C165.469 96.206 162.704 98.3917 159.123 100.393C155.594 102.394 151.802 103.395 147.747 103.395C142.217 103.395 137.924 101.894 134.87 98.892C131.815 95.89 130.288 91.782 130.288 86.568C130.288 82.934 131.051 79.5633 132.579 76.456C134.106 73.296 136.213 70.7943 138.899 68.951C141.637 67.1077 144.718 66.186 148.142 66.186C151.196 66.186 153.645 67.1077 155.489 68.951C157.332 70.7417 158.254 73.1907 158.254 76.298C158.254 79.932 156.937 83.0657 154.304 85.699C151.723 88.2797 147.325 90.3337 141.111 91.861C142.427 94.2837 144.929 95.495 148.616 95.495C150.986 95.495 153.672 94.6787 156.674 93.046C159.728 91.3607 162.362 89.175 164.574 86.489C165.206 85.7517 165.917 85.383 166.707 85.383ZM146.799 73.928C144.85 73.928 143.191 75.0603 141.822 77.325C140.505 79.5897 139.847 82.3283 139.847 85.541V85.699C142.954 84.9617 145.403 83.8557 147.194 82.381C148.984 80.9063 149.88 79.1947 149.88 77.246C149.88 76.2453 149.59 75.4553 149.011 74.876C148.484 74.244 147.747 73.928 146.799 73.928ZM168.095 103.395C166.094 103.395 164.672 102.342 163.829 100.235C163.039 98.1283 162.644 94.7577 162.644 90.123C162.644 83.2763 163.619 76.772 165.567 70.61C166.041 69.0827 166.805 67.9767 167.858 67.292C168.964 66.5547 170.492 66.186 172.44 66.186C173.494 66.186 174.231 66.3177 174.652 66.581C175.074 66.8443 175.284 67.3447 175.284 68.082C175.284 68.9247 174.889 70.8207 174.099 73.77C173.573 75.8767 173.151 77.72 172.835 79.3C172.519 80.88 172.256 82.8287 172.045 85.146C173.783 80.6167 175.732 76.93 177.891 74.086C180.051 71.242 182.157 69.2143 184.211 68.003C186.318 66.7917 188.24 66.186 189.978 66.186C193.402 66.186 195.113 67.8977 195.113 71.321C195.113 72.0057 194.876 73.6647 194.402 76.298C193.981 78.4047 193.77 79.7213 193.77 80.248C193.77 82.0913 194.429 83.013 195.745 83.013C197.22 83.013 199.116 81.8543 201.433 79.537C202.118 78.8523 202.829 78.51 203.566 78.51C204.251 78.51 204.778 78.826 205.146 79.458C205.568 80.0373 205.778 80.8273 205.778 81.828C205.778 83.7767 205.252 85.304 204.198 86.41C202.724 87.9373 200.986 89.254 198.984 90.36C197.036 91.4133 194.955 91.94 192.743 91.94C189.952 91.94 187.819 91.229 186.344 89.807C184.922 88.385 184.211 86.4627 184.211 84.04C184.211 83.25 184.29 82.46 184.448 81.67C184.554 80.6167 184.606 79.9057 184.606 79.537C184.606 78.6943 184.317 78.273 183.737 78.273C182.947 78.273 181.894 79.1683 180.577 80.959C179.313 82.697 178.049 85.0143 176.785 87.911C175.521 90.8077 174.494 93.8623 173.704 97.075C173.125 99.5503 172.44 101.236 171.65 102.131C170.913 102.974 169.728 103.395 168.095 103.395ZM243.31 85.383C243.994 85.383 244.521 85.699 244.89 86.331C245.311 86.963 245.522 87.832 245.522 88.938C245.522 91.0447 245.021 92.6773 244.021 93.836C241.861 96.4693 239.491 98.734 236.911 100.63C234.33 102.473 231.776 103.395 229.248 103.395C225.245 103.395 222.19 101.051 220.084 96.364C217.872 99.1553 215.923 101.025 214.238 101.973C212.605 102.921 210.683 103.395 208.471 103.395C205.258 103.395 202.598 102.21 200.492 99.84C198.438 97.4173 197.411 94.2837 197.411 90.439C197.411 86.2257 198.306 82.3283 200.097 78.747C201.887 75.113 204.336 72.1637 207.444 69.899C210.604 67.5817 214.132 66.2123 218.03 65.791C219.03 55.5737 220.926 46.8573 223.718 39.642C226.562 32.374 230.275 28.74 234.857 28.74C237.121 28.74 238.991 29.767 240.466 31.821C241.993 33.875 242.757 36.9823 242.757 41.143C242.757 47.0417 241.308 53.941 238.412 61.841C235.515 69.741 231.644 77.8517 226.799 86.173C227.009 89.2277 227.457 91.4133 228.142 92.73C228.879 94.0467 229.801 94.705 230.907 94.705C232.329 94.705 233.777 94.073 235.252 92.809C236.726 91.545 238.701 89.4383 241.177 86.489C241.809 85.7517 242.52 85.383 243.31 85.383ZM233.988 36.482C232.987 36.482 231.986 38.2727 230.986 41.854C229.985 45.3827 229.116 50.0173 228.379 55.758C227.694 61.4987 227.194 67.5027 226.878 73.77C232.776 60.9193 235.726 50.5967 235.726 42.802C235.726 40.8007 235.541 39.247 235.173 38.141C234.857 37.035 234.462 36.482 233.988 36.482ZM211.236 95.416C212.236 95.416 213.237 95.021 214.238 94.231C215.238 93.3883 216.502 91.861 218.03 89.649C217.503 86.805 217.24 83.6187 217.24 80.09C217.24 78.826 217.292 76.772 217.398 73.928C214.501 74.8233 212.078 76.772 210.13 79.774C208.234 82.7233 207.286 86.015 207.286 89.649C207.286 93.4937 208.602 95.416 211.236 95.416ZM252.446 103.395C249.338 103.395 246.679 102.631 244.467 101.104C242.307 99.524 240.675 97.47 239.569 94.942C238.463 92.414 237.91 89.7017 237.91 86.805C237.91 82.8023 238.647 79.2473 240.122 76.14C241.649 72.98 243.703 70.531 246.284 68.793C248.864 67.0023 251.761 66.107 254.974 66.107C258.081 66.107 260.741 66.897 262.953 68.477C265.165 70.0043 266.824 72.032 267.93 74.56C269.036 77.088 269.589 79.8003 269.589 82.697C269.589 86.6997 268.825 90.281 267.298 93.441C265.77 96.5483 263.69 98.9973 261.057 100.788C258.476 102.526 255.606 103.395 252.446 103.395ZM253.315 94.863C255.105 94.863 256.606 93.8887 257.818 91.94C259.082 89.9913 259.714 87.1473 259.714 83.408C259.714 80.5113 259.187 78.3257 258.134 76.851C257.08 75.3763 255.816 74.639 254.342 74.639C252.446 74.639 250.866 75.6133 249.602 77.562C248.39 79.458 247.785 82.302 247.785 86.094C247.785 89.096 248.311 91.308 249.365 92.73C250.418 94.152 251.735 94.863 253.315 94.863Z" fill="#191125"/>
</g>
</svg>
