<svg width="500" height="500" viewBox="0 0 500 500" fill="none" xmlns="http://www.w3.org/2000/svg">
<path id="Exclude" fill-rule="evenodd" clip-rule="evenodd" d="M500 250C500 388.071 388.071 500 250 500C111.929 500 0 388.071 0 250C0 111.929 111.929 0 250 0C388.071 0 500 111.929 500 250ZM314.481 337.158C316.197 337.114 317.823 336.678 319.286 335.929L334.056 335.819C326.599 346.487 320.253 356.987 315.53 367.244H310.845L314.481 337.158ZM312.458 337.026C313.025 337.116 313.605 337.162 314.194 337.162C314.29 337.162 314.386 337.161 314.481 337.158L314.626 335.964L319.286 335.929C320.4 335.359 321.419 334.608 322.311 333.711L335.613 333.612C335.089 334.349 334.57 335.084 334.056 335.819L346.338 335.728L340.73 364.303C340.541 365.646 339.914 366.871 338.963 367.754C338.791 367.914 338.61 368.061 338.422 368.194V367.244H315.53C315.243 367.868 314.961 368.492 314.686 369.114H312.683L310.794 367.664L310.845 367.244H310.247L308.928 366.231L312.458 337.026ZM309.251 336.003C310.253 336.499 311.33 336.848 312.458 337.026L312.585 335.979L314.626 335.964L314.891 333.766L322.311 333.711C324.67 331.341 326.146 327.951 326.146 324.187C326.146 318.288 322.519 313.308 317.555 311.732L320.462 287.679L351.145 311.239L350.626 313.881C345.299 320.507 340.255 327.09 335.613 333.612L346.77 333.529L346.338 335.728L347.473 335.72L347.46 333.524L346.77 333.529L350.626 313.881C350.938 313.494 351.25 313.106 351.564 312.718C351.642 312.621 351.72 312.524 351.799 312.428C351.913 312.287 352.027 312.146 352.142 312.005L351.145 311.239L359.551 268.41L361.269 268.415L361.274 266.22L359.982 266.216L366.116 234.961C366.234 234.149 366.188 233.318 365.982 232.526C365.775 231.735 365.413 231.001 364.921 230.376C364.428 229.751 363.817 229.249 363.129 228.905C362.44 228.56 361.692 228.382 360.934 228.382H327.629L327.74 227.46L325.744 227.109L325.59 228.382H263.612V227.285H261.589V228.382H196.478L196.32 227.106L194.326 227.463L194.439 228.382H159.525L159.097 226.187H360.934C361.984 226.187 363.021 226.434 363.975 226.911C364.928 227.388 365.775 228.083 366.458 228.95C367.14 229.816 367.641 230.832 367.927 231.929C368.214 233.025 368.277 234.176 368.115 235.302L342.728 364.644C342.466 366.505 341.597 368.202 340.279 369.425C339.718 369.947 339.091 370.367 338.422 370.678V368.194C337.571 368.796 336.573 369.119 335.549 369.114H314.686C314.631 369.24 314.576 369.365 314.521 369.49L314.466 369.616C314.428 369.7 314.392 369.785 314.355 369.87C314.297 370.002 314.24 370.134 314.183 370.266L312.683 369.114H310.619L310.794 367.664L310.247 367.244H308.806L308.928 366.231L273.689 339.173C274.586 338.224 275.478 337.248 276.365 336.247L309.251 336.003ZM306.198 333.831C307.102 334.714 308.13 335.45 309.251 336.003L312.585 335.979L312.85 333.781L314.891 333.766L317.555 311.732C316.913 311.528 316.249 311.382 315.568 311.297L318.596 286.247L320.462 287.679L322.802 268.314L359.551 268.41L359.982 266.216L323.068 266.119L327.629 228.382H325.59L321.029 266.114L263.612 265.963V228.382H261.589V265.957L201.101 265.798L196.478 228.382H194.439L199.061 265.793L166.798 265.708L159.525 228.382H157.64L177.495 334.786L175.482 334.801L175.484 335.085L155.186 226.187H159.097L153.215 196H141.608C147.287 194.797 151.725 190.847 154.922 184.15C155.501 188.047 156.923 191.076 159.188 193.235C161.453 195.342 164.428 196.395 168.115 196.395C171.696 196.395 174.725 195.579 177.2 193.946C178.623 193.007 180.064 191.824 181.523 190.398C181.937 190.978 182.395 191.528 182.898 192.05C185.795 194.947 189.824 196.395 194.985 196.395C198.198 196.395 201.516 195.579 204.939 193.946C206.749 193.069 208.422 192.006 209.961 190.758C210.289 191.616 210.7 192.416 211.193 193.156C212.721 195.315 214.669 196.395 217.039 196.395C219.093 196.395 221.016 195.447 222.806 193.551C224.597 191.602 225.94 188.837 226.835 185.256C226.835 188.785 227.415 191.523 228.573 193.472C229.785 195.421 231.654 196.395 234.182 196.395C237.5 196.395 240.45 195.5 243.03 193.709C244.534 192.687 245.977 191.501 247.361 190.153C247.814 190.769 248.317 191.348 248.87 191.892C251.924 194.894 256.217 196.395 261.747 196.395C265.802 196.395 269.594 195.394 273.123 193.393C274.62 192.557 275.974 191.688 277.185 190.787C277.359 191.736 277.573 192.552 277.829 193.235C278.672 195.342 280.094 196.395 282.095 196.395C283.728 196.395 284.913 195.974 285.65 195.131C286.44 194.236 287.125 192.55 287.704 190.075C288.494 186.862 289.521 183.808 290.785 180.911C292.049 178.014 293.313 175.697 294.577 173.959C295.894 172.168 296.947 171.273 297.737 171.273C298.317 171.273 298.606 171.694 298.606 172.537C298.606 172.906 298.554 173.617 298.448 174.67C298.29 175.46 298.211 176.25 298.211 177.04C298.211 179.463 298.922 181.385 300.344 182.807C301.819 184.229 303.952 184.94 306.743 184.94C308.374 184.94 309.933 184.654 311.42 184.081C311.529 187.634 312.553 190.554 314.492 192.84C316.598 195.21 319.258 196.395 322.471 196.395C324.682 196.395 326.605 195.921 328.238 194.973C329.923 194.025 331.872 192.155 334.083 189.364C336.19 194.051 339.245 196.395 343.247 196.395C345.776 196.395 348.33 195.473 350.911 193.63C352.28 192.624 353.591 191.513 354.842 190.299C355.815 191.779 357.023 193.048 358.467 194.104C360.679 195.631 363.338 196.395 366.446 196.395C369.606 196.395 372.476 195.526 375.057 193.788C377.69 191.997 379.77 189.548 381.298 186.441C382.825 183.281 383.589 179.7 383.589 175.697C383.589 172.8 383.036 170.088 381.93 167.56C380.824 165.032 379.165 163.004 376.953 161.477C374.741 159.897 372.081 159.107 368.974 159.107C365.761 159.107 362.864 160.002 360.284 161.793C357.703 163.531 355.649 165.98 354.122 169.14C352.647 172.247 351.91 175.802 351.91 179.805C351.91 180.882 351.986 181.933 352.139 182.959C351.025 184.164 350.063 185.114 349.251 185.809C347.777 187.073 346.329 187.705 344.907 187.705C343.801 187.705 342.879 187.047 342.142 185.73C341.457 184.413 341.009 182.228 340.799 179.173C345.644 170.852 349.515 162.741 352.411 154.841C355.308 146.941 356.757 140.042 356.757 134.143C356.757 129.982 355.993 126.875 354.466 124.821C352.991 122.767 351.121 121.74 348.857 121.74C344.275 121.74 340.562 125.374 337.717 132.642C334.926 139.857 333.03 148.574 332.03 158.791C328.132 159.212 324.604 160.582 321.444 162.899C318.336 165.164 315.887 168.113 314.096 171.747C313.602 172.736 313.175 173.75 312.817 174.788C311.645 175.605 310.621 176.013 309.745 176.013C308.429 176.013 307.77 175.091 307.77 173.248C307.77 172.721 307.981 171.405 308.402 169.298C308.876 166.665 309.113 165.006 309.113 164.321C309.113 160.898 307.402 159.186 303.978 159.186C302.24 159.186 300.318 159.792 298.211 161.003C296.157 162.214 294.051 164.242 291.891 167.086C289.732 169.93 287.783 173.617 286.045 178.146C286.256 175.829 286.519 173.88 286.835 172.3C287.151 170.72 287.573 168.877 288.099 166.77C288.889 163.821 289.284 161.925 289.284 161.082C289.284 160.345 289.074 159.844 288.652 159.581C288.231 159.318 287.494 159.186 286.44 159.186C284.492 159.186 282.964 159.555 281.858 160.292C280.805 160.977 280.041 162.083 279.567 163.61C277.765 169.309 276.796 175.3 276.661 181.584C274.887 183.335 272.892 184.822 270.674 186.046C267.672 187.679 264.986 188.495 262.616 188.495C258.929 188.495 256.427 187.284 255.111 184.861C261.325 183.334 265.723 181.28 268.304 178.699C270.937 176.066 272.254 172.932 272.254 169.298C272.254 166.191 271.332 163.742 269.489 161.951C267.645 160.108 265.196 159.186 262.142 159.186C258.718 159.186 255.637 160.108 252.899 161.951C250.213 163.794 248.106 166.296 246.579 169.456C245.051 172.563 244.288 175.934 244.288 179.568C244.288 180.752 244.366 181.879 244.524 182.949C243.437 184.137 242.492 185.091 241.687 185.809C240.265 187.073 239.028 187.705 237.974 187.705C237.29 187.705 236.737 187.442 236.315 186.915C235.894 186.336 235.683 185.546 235.683 184.545C235.683 182.965 236.421 178.804 237.895 172.063C239.212 166.164 239.87 162.557 239.87 161.24C239.87 160.45 239.633 159.923 239.159 159.66C238.685 159.344 237.843 159.186 236.631 159.186C234.893 159.186 233.577 159.528 232.681 160.213C231.839 160.898 231.207 162.03 230.785 163.61C229.521 168.297 228.205 172.247 226.835 175.46C225.519 178.673 224.255 181.069 223.043 182.649C221.885 184.229 220.91 185.019 220.12 185.019C219.541 185.019 219.12 184.808 218.856 184.387C218.593 183.913 218.461 183.123 218.461 182.017C218.461 180.174 218.988 176.487 220.041 170.957C220.357 169.377 220.779 167.613 221.305 165.664C221.885 163.241 222.174 161.819 222.174 161.398C222.174 160.661 221.937 160.108 221.463 159.739C221.042 159.37 220.252 159.186 219.093 159.186C217.039 159.186 215.538 159.528 214.59 160.213C213.642 160.898 212.905 162.03 212.378 163.61C211.167 167.297 210.298 170.799 209.771 174.117C209.393 176.463 209.151 178.985 209.044 181.684C207.256 183.517 205.44 184.97 203.596 186.046C201.121 187.468 198.804 188.179 196.645 188.179C191.325 188.179 188.665 185.124 188.665 179.015C188.665 176.803 188.981 174.775 189.613 172.932C190.245 171.089 191.088 169.64 192.141 168.587C193.195 167.481 194.327 166.928 195.538 166.928C196.17 166.928 196.644 167.112 196.96 167.481C197.329 167.85 197.513 168.376 197.513 169.061C197.513 169.746 197.382 170.483 197.118 171.273C197.066 171.484 196.987 171.826 196.882 172.3C196.776 172.774 196.723 173.195 196.723 173.564C196.723 174.407 197.013 175.065 197.592 175.539C198.224 176.013 199.041 176.25 200.041 176.25C201.621 176.25 202.885 175.486 203.833 173.959C204.834 172.432 205.334 170.562 205.334 168.35C205.334 165.664 204.518 163.478 202.885 161.793C201.305 160.055 199.067 159.186 196.17 159.186C193.221 159.186 190.403 160.055 187.717 161.793C185.031 163.531 182.846 166.006 181.16 169.219C179.475 172.432 178.632 176.171 178.632 180.437C178.632 181.318 178.681 182.169 178.777 182.988C177.809 183.97 176.941 184.752 176.173 185.335C174.646 186.441 173.039 186.994 171.354 186.994C169.616 186.994 168.326 186.362 167.483 185.098C166.64 183.781 166.219 181.701 166.219 178.857C166.219 175.644 166.772 170.957 167.878 164.795C169.037 158.58 170.301 152.919 171.67 147.81C171.828 147.178 171.907 146.651 171.907 146.23C171.907 143.807 170.037 142.596 166.298 142.596C164.718 142.596 163.454 142.859 162.506 143.386C161.558 143.913 160.926 144.913 160.61 146.388C158.661 156.5 156.686 164.505 154.685 170.404C152.684 176.303 150.472 180.569 148.049 183.202C145.626 185.835 142.809 187.152 139.596 187.152C136.752 187.152 134.435 185.941 132.644 183.518C130.906 181.043 130.037 177.567 130.037 173.09C130.037 166.928 131.196 161.187 133.513 155.868C135.83 150.549 139.333 146.283 144.02 143.07C148.707 139.805 154.395 138.172 161.084 138.172C163.243 138.172 165.297 138.33 167.246 138.646C169.195 138.909 171.538 139.357 174.277 139.989C174.488 140.042 174.804 140.068 175.225 140.068C176.594 140.068 177.779 139.462 178.78 138.251C179.833 137.04 180.36 135.749 180.36 134.38C180.36 132.695 179.623 131.641 178.148 131.22C175.883 130.483 173.355 129.93 170.564 129.561C167.825 129.192 165.245 129.008 162.822 129.008C153.447 129.008 145.416 131.088 138.727 135.249C132.038 139.357 126.982 144.834 123.559 151.681C120.136 158.475 118.424 165.875 118.424 173.88C118.424 178.515 119.267 182.544 120.952 185.967C122.637 189.338 124.928 191.918 127.825 193.709C129.643 194.813 131.592 195.577 133.67 196H119V203.684H147.477L180.846 374.928H197.318C192.258 377.597 188.77 383.23 188.77 389.747C188.77 398.841 195.561 406.213 203.938 406.213C212.314 406.213 219.105 398.841 219.105 389.747C219.105 383.23 215.617 377.597 210.557 374.928H310.568C305.508 377.597 302.02 383.23 302.02 389.747C302.02 398.841 308.811 406.213 317.187 406.213C325.564 406.213 332.355 398.841 332.355 389.747C332.355 383.23 328.867 377.597 323.807 374.928H338.422V370.678C337.521 371.096 336.544 371.314 335.549 371.31H182.236L175.84 336.993L177.904 336.978L183.901 369.114H186.35L186.309 369.366C186.292 369.473 186.274 369.58 186.256 369.687C186.227 369.864 186.197 370.04 186.167 370.215H211.963L212.041 370.845L214.036 370.488L214.002 370.215H235.767C235.707 369.85 235.647 369.483 235.589 369.114H245.011C245.303 369.24 245.617 369.308 245.937 369.31H261.589V370.666H263.612V369.31H265.814C266.134 369.307 266.448 369.24 266.74 369.114H308.58L308.546 369.393L310.543 369.744L310.619 369.114H308.58L308.806 367.244H268.278C268.333 367.025 268.363 366.798 268.367 366.567L268.724 336.304L276.365 336.247C277.006 335.524 277.645 334.787 278.28 334.038L306.198 333.831ZM268.643 334.109L278.28 334.038C290.151 320.039 301.113 301.532 311.647 280.911L318.596 286.247L320.764 268.308L322.802 268.314L323.068 266.119L321.029 266.114L320.764 268.308L263.612 268.158V265.963L261.589 265.957V268.153L201.372 267.995L201.101 265.798L199.061 265.793L199.333 267.989L167.226 267.905L166.798 265.708L165.516 265.705L165.511 267.9L167.226 267.905L180.254 334.765L177.495 334.786L177.904 336.978L180.681 336.958L186.583 367.244H186.639C186.547 367.871 186.45 368.495 186.35 369.114H211.827L211.963 370.215H214.002L213.866 369.114H235.589C235.492 368.495 235.398 367.871 235.308 367.244H243.473C243.593 367.725 243.829 368.166 244.163 368.519C244.409 368.778 244.698 368.98 245.011 369.114H261.589V369.31H263.612V369.114H266.74C267.06 368.977 267.355 368.77 267.604 368.502C267.93 368.152 268.161 367.717 268.278 367.244H263.612V361.393L266.441 345.011C266.489 344.732 266.48 344.446 266.415 344.172C266.349 343.897 266.229 343.642 266.062 343.424C265.895 343.206 265.686 343.03 265.45 342.91C265.214 342.79 264.956 342.727 264.695 342.727H263.612V336.342L268.724 336.304L268.737 335.237C268.741 334.857 268.709 334.479 268.643 334.109ZM263.612 334.147L268.643 334.109C268.51 333.361 268.239 332.646 267.842 332.009C266.154 329.328 264.739 326.477 263.612 323.508V268.158L261.589 268.153V316.761C260.696 312.766 260.29 308.635 260.4 304.475C260.404 304.249 260.337 304.028 260.208 303.85C260.08 303.672 259.899 303.547 259.695 303.497V302.065C259.918 302.023 260.126 301.908 260.288 301.732C260.495 301.507 260.611 301.202 260.611 300.885V296.92C260.611 296.602 260.495 296.298 260.288 296.073C260.081 295.848 259.8 295.722 259.508 295.722H251.187C250.894 295.722 250.614 295.848 250.407 296.073C250.2 296.298 250.084 296.602 250.084 296.92V300.885C250.084 301.202 250.2 301.507 250.407 301.732C250.546 301.883 250.72 301.99 250.908 302.043V303.474H250.786C250.668 303.474 250.551 303.499 250.441 303.549C250.332 303.598 250.233 303.67 250.149 303.761C250.066 303.852 249.999 303.96 249.954 304.079C249.909 304.198 249.886 304.325 249.886 304.454C249.886 304.478 249.887 304.501 249.888 304.525C250.581 315.002 248.243 324.397 242.875 332.711C242.574 333.178 242.416 333.735 242.424 334.304L233.557 334.37C233.74 323.094 234.556 311.175 235.767 298.854H205.185L201.372 267.995L199.333 267.989L203.146 298.854H186.167C187.424 311.297 188.266 323.33 188.444 334.704L180.254 334.765L180.681 336.958L188.47 336.9C188.556 347.704 188.019 357.892 186.639 367.244H211.596L211.827 369.114H213.866L213.635 367.244H235.308C233.951 357.795 233.431 347.494 233.529 336.565L242.489 336.499L243.386 366.614C243.393 366.829 243.423 367.04 243.473 367.244H261.589V369.114H263.612V367.244H261.589V363.397H263.265L263.612 361.393V342.727H261.589V336.357L263.612 336.342V334.147ZM261.589 334.162V336.357L242.489 336.499L242.425 334.346C242.425 334.332 242.425 334.318 242.424 334.304L261.589 334.162ZM261.589 334.162L263.612 334.147V323.508C262.78 321.317 262.104 319.062 261.589 316.761V334.162ZM261.589 342.727V363.397H248.253L245.638 344.949C245.6 344.674 245.616 344.393 245.686 344.126C245.756 343.859 245.879 343.611 246.046 343.4C246.213 343.189 246.42 343.02 246.652 342.903C246.885 342.787 247.138 342.727 247.394 342.727H261.589ZM222.622 336.646L233.529 336.565C233.535 335.836 233.545 335.104 233.557 334.37L223.096 334.447C223.176 333.84 223.218 333.219 223.218 332.588C223.218 325.422 217.867 319.613 211.266 319.613C210.067 319.613 208.91 319.805 207.818 320.162L205.185 298.854H203.146L205.882 321.001C201.986 323.139 199.314 327.525 199.314 332.588C199.314 333.28 199.364 333.96 199.46 334.623L188.444 334.704C188.455 335.439 188.464 336.171 188.47 336.9L199.963 336.814C201.326 341.113 204.711 344.39 208.885 345.306L211.596 367.244H213.635L210.956 345.559C211.059 345.562 211.162 345.563 211.266 345.563C216.561 345.563 221.052 341.825 222.622 336.646ZM209.866 336.741L210.956 345.559C210.248 345.539 209.557 345.453 208.885 345.306L207.829 336.756L209.866 336.741ZM209.595 334.547L223.096 334.447C222.996 335.203 222.836 335.938 222.622 336.646L209.866 336.741L209.595 334.547ZM207.558 334.562L199.46 334.623C199.57 335.377 199.739 336.109 199.963 336.814L207.829 336.756L207.558 334.562ZM207.558 334.562L209.595 334.547L207.818 320.162C207.146 320.381 206.499 320.663 205.882 321.001L207.558 334.562ZM250.908 302.043V301.784H259.695V302.065C259.634 302.077 259.571 302.082 259.508 302.082H258.129V308.023H252.566V302.082H251.187C251.092 302.082 250.998 302.069 250.908 302.043ZM306.198 333.831L312.85 333.781L315.568 311.297C315.117 311.241 314.659 311.212 314.194 311.212C307.594 311.212 302.243 317.021 302.243 324.187C302.243 328.015 303.77 331.456 306.198 333.831ZM323.807 374.928H310.568C312.568 373.873 314.814 373.281 317.187 373.281C319.561 373.281 321.807 373.873 323.807 374.928ZM210.557 374.928C208.557 373.873 206.311 373.281 203.938 373.281C201.564 373.281 199.318 373.873 197.318 374.928H210.557ZM133.67 196H141.608C140.365 196.263 139.062 196.395 137.7 196.395C136.306 196.395 134.963 196.263 133.67 196ZM175.84 336.993L175.496 336.996L175.484 335.085L175.84 336.993ZM257.773 297.014C257.773 297.7 257.522 298.357 257.076 298.841C256.63 299.326 256.024 299.598 255.393 299.598C254.762 299.598 254.156 299.326 253.71 298.841C253.264 298.357 253.013 297.7 253.013 297.014H257.773ZM255.822 170.325C257.191 168.06 258.85 166.928 260.799 166.928C261.747 166.928 262.484 167.244 263.011 167.876C263.59 168.455 263.88 169.245 263.88 170.246C263.88 172.195 262.984 173.906 261.194 175.381C259.403 176.856 256.954 177.962 253.847 178.699V178.541C253.847 175.328 254.505 172.59 255.822 170.325ZM344.986 134.854C345.986 131.273 346.987 129.482 347.988 129.482C348.462 129.482 348.857 130.035 349.173 131.141C349.541 132.247 349.726 133.801 349.726 135.802C349.726 143.597 346.776 153.919 340.878 166.77C341.194 160.503 341.694 154.499 342.379 148.758C343.116 143.017 343.985 138.383 344.986 134.854ZM328.238 187.231C327.237 188.021 326.236 188.416 325.236 188.416C322.602 188.416 321.286 186.494 321.286 182.649C321.286 179.015 322.234 175.723 324.13 172.774C326.078 169.772 328.501 167.823 331.398 166.928C331.292 169.772 331.24 171.826 331.24 173.09C331.24 176.619 331.503 179.805 332.03 182.649C330.502 184.861 329.238 186.388 328.238 187.231ZM371.818 184.94C370.606 186.889 369.105 187.863 367.315 187.863C365.735 187.863 364.418 187.152 363.365 185.73C362.311 184.308 361.785 182.096 361.785 179.094C361.785 175.302 362.39 172.458 363.602 170.562C364.866 168.613 366.446 167.639 368.342 167.639C369.816 167.639 371.08 168.376 372.134 169.851C373.187 171.326 373.714 173.511 373.714 176.408C373.714 180.147 373.082 182.991 371.818 184.94Z" fill="#191125"/>
</svg>
